[img]http://img507.imageshack.us/img507/4874/youngm.jpg[/img]
[code]
Young Adult 2011 CAM Xvid READNFO-26K

Imdb: 
http://www.imdb.com/title/tt1625346/

Plot:
Soon after her divorce, a fiction writer returns to her home in small-town Minnesota, looking to rekindle a romance with her ex-boyfriend, who is now married with kids.

Sources:
Thnxs m8!!!!!

Notes:
WHY READNFO ? the source was recorded on a very bad angel!
audio is not so bad either pretty good for a cam :)
so rotated, cropped and added color to the video !
enjoy!
special thnxs to a friend for the help you rock bro :)

Greetz:
Xtreme Encode|FYA|ILLUMANTI|CM8|RX|VISION|HDSCENE|NIGHTMAREZ|xTriLL|DTRG|CRYS|REMIXHD|BIDA|RX|REFILL| INSPiRAL
To all the people who have helped me :P you know who you are

Anything to offer email us @: 26k@hushmail.me

Video
ID                                       : 0
Format                                   : MPEG-4 Visual
Format profile                           : Advanced Simple@L5
Format settings, BVOP                    : 2
Format settings, QPel                    : No
Format settings, GMC                     : No warppoints
Format settings, Matrix                  : Default (H.263)
Muxing mode                              : Packed bitstream
Codec ID                                 : XVID
Codec ID/Hint                            : XviD
Duration                                 : 1h 28mn
Bit rate                                 : 2 396 Kbps
Width                                    : 640 pixels
Height                                   : 304 pixels
Display aspect ratio                     : 2.2:1
Frame rate                               : 59.940 fps
Color space                              : YUV
Chroma subsampling                       : 4:2:0
Bit depth                                : 8 bits
Scan type                                : Progressive
Compression mode                         : Lossy
Bits/(Pixel*Frame)                       : 0.205
Stream size                              : 1.48 GiB (94%)
Writing library                          : XviD 64

Audio
ID                                       : 1
Format                                   : MPEG Audio
Format version                           : Version 1
Format profile                           : Layer 3
Mode                                     : Joint stereo
Mode extension                           : MS Stereo
Codec ID                                 : 55
Codec ID/Hint                            : MP3
Duration                                 : 1h 28mn
Bit rate mode                            : Constant
Bit rate                                 : 128 Kbps
Channel(s)                               : 2 channels
Sampling rate                            : 44.1 KHz
Compression mode                         : Lossy
Delay relative to video                  : 18ms
Stream size                              : 81.2 MiB (5%)
Alignment                                : Split accross interleaves
Interleave, duration                     : 17 ms (1.00 video frame)
Writing library                          : LAME3.98Y’ÉŽ6–¤

[/code]
Screens:
[img]http://img687.imageshack.us/img687/93/vlcsnap2012010310h54m03.png[/img]
[img]http://img259.imageshack.us/img259/9071/vlcsnap2012010310h54m07.png[/img]
[img]http://img202.imageshack.us/img202/8517/vlcsnap2012010310h54m13.png[/img]
[img]http://img844.imageshack.us/img844/4549/vlcsnap2012010310h54m21.png[/img]

[img]http://img851.imageshack.us/img851/5503/26ks.jpg[/img]#
Thank you smallz for banner!